PathFileType	4	(X/Y/Z)	SUBJ63_0_static_RCNL2025.trc
DataRate	CameraRate	NumFrames	NumMarkers	Units	OrigDataRate	OrigDataStartFrame	OrigNumFrames
100	100	10	25	mm	100	1	116
Frame#	Time	R_Shoulder			L_Shoulder			C7			J_Notch			R_Elbow			L_Elbow			R_Wrist			L_Wrist			R_Asis			L_Asis			Sacral			Thoracic			Sternum			R_Thigh_Lateral			R_Knee_Lateral			R_Shank_Lateral			R_Ankle_Lateral			R_Heel			R_Toe			L_Thigh_Lateral			L_Knee_Lateral			L_Shank_Lateral			L_Ankle_Lateral			L_Heel			L_Toe		
		X1	Y1	Z1	X2	Y2	Z2	X3	Y3	Z3	X4	Y4	Z4	X5	Y5	Z5	X6	Y6	Z6	X7	Y7	Z7	X8	Y8	Z8	X9	Y9	Z9	X10	Y10	Z10	X11	Y11	Z11	X12	Y12	Z12	X13	Y13	Z13	X14	Y14	Z14	X15	Y15	Z15	X16	Y16	Z16	X17	Y17	Z17	X18	Y18	Z18	X19	Y19	Z19	X20	Y20	Z20	X21	Y21	Z21	X22	Y22	Z22	X23	Y23	Z23	X24	Y24	Z24	X25	Y25	Z25
1	0.00000000	-330.327118	1296.100586	-45.733540	-326.465912	1298.784546	-386.434113	-413.371399	1362.651001	-220.181686	-292.609131	1260.168335	-218.845200	-359.035583	1000.916687	28.801195	-347.819641	999.428223	-472.794769	-289.492096	784.298309	59.581180	-281.333801	786.061096	-496.579102	-252.736191	847.030518	-90.243965	-238.536804	843.041748	-342.448578	-471.250824	866.830139	-231.638977	-481.545532	1171.049194	-219.603638	-228.477097	1086.025269	-217.685104	-360.726593	506.962769	-44.841896	-370.119934	451.085571	-93.402733	-400.238495	271.797699	-47.418144	-411.156738	61.432526	-127.718452	-453.352448	58.779644	-179.160660	-293.561584	47.161842	-130.533188	-339.590912	473.727570	-425.584259	-347.415253	448.274902	-357.332947	-367.156586	258.454102	-396.925232	-388.984253	60.622623	-323.054016	-441.234497	53.467579	-275.961243	-269.558014	44.007664	-305.194489
2	0.01000000	-330.386353	1296.118042	-45.684677	-326.633118	1298.833008	-386.336426	-413.541962	1362.623535	-220.154419	-292.702667	1260.178223	-218.698227	-358.694305	1001.065613	29.172121	-347.907623	999.496460	-472.912170	-288.079178	784.904419	59.975809	-280.995865	786.287048	-496.860992	-252.870239	847.012878	-90.263016	-238.539703	843.037720	-342.420685	-471.234650	866.895874	-231.667114	-481.608459	1171.058350	-219.675812	-228.471756	1086.043945	-217.679657	-360.481079	506.985718	-44.939667	-370.169250	451.031433	-93.441353	-400.340393	271.738892	-47.538448	-411.035889	61.466633	-127.655899	-453.352448	58.779644	-179.160660	-293.561584	47.161842	-130.533188	-339.617157	473.681946	-425.564514	-347.405945	448.267059	-357.309692	-367.071442	258.092316	-396.415924	-388.981110	60.632572	-323.049469	-441.081726	53.342949	-276.016174	-269.521301	44.123596	-305.217163
3	0.02000000	-330.450256	1296.167603	-45.644939	-326.611115	1298.880493	-386.330475	-413.550385	1362.624634	-220.151245	-292.707458	1260.177124	-218.745987	-358.558380	1001.072937	29.167492	-347.726410	999.538086	-472.905396	-287.988495	784.961609	59.996262	-281.207672	786.201416	-496.684036	-252.957825	847.004395	-90.191849	-238.609421	843.030151	-342.350739	-471.328430	866.793274	-231.579086	-481.696381	1171.004883	-219.607422	-228.493637	1086.101074	-217.686584	-356.273773	508.710358	-43.897602	-366.421326	452.531250	-92.537178	-399.377441	272.535645	-47.524975	-411.113831	61.472225	-127.677696	-453.388428	58.788887	-179.144775	-293.872223	47.109161	-130.806808	-339.609985	473.672028	-425.592163	-347.425568	448.266937	-357.279144	-367.040344	258.168701	-396.399628	-388.982635	60.639626	-323.037018	-441.202209	53.429962	-275.914398	-269.578949	44.068329	-305.174652
4	0.03000000	-330.565582	1296.183716	-45.643158	-326.637573	1298.919189	-386.291565	-413.615509	1362.631104	-220.108948	-292.763916	1260.181274	-218.711197	-358.635132	1001.102295	29.309404	-347.811218	999.627869	-472.935120	-288.027267	784.997253	60.034140	-281.258453	786.226135	-496.699081	-252.944534	847.071594	-90.187805	-238.603729	843.118835	-342.336517	-471.298737	866.800171	-231.623032	-481.774567	1171.013794	-219.554337	-228.577881	1086.211304	-217.693512	-355.659210	508.714569	-43.901741	-366.041168	452.541260	-92.493919	-399.171753	272.538208	-47.629383	-411.016083	61.430550	-127.664314	-453.359528	58.797295	-179.154144	-293.897919	47.107853	-130.805893	-339.616425	473.732422	-425.536346	-347.428192	448.266663	-357.277466	-367.037079	258.205353	-396.473297	-388.911438	60.600765	-323.100250	-441.125549	53.305428	-275.987640	-269.514313	44.094074	-305.192169
5	0.04000000	-330.637665	1296.223755	-45.639008	-326.685333	1298.934204	-386.298798	-413.794312	1362.628662	-220.076920	-292.877380	1260.242676	-218.677811	-358.614594	1001.250793	29.267984	-347.822571	999.677734	-473.105682	-287.952072	785.067047	60.114571	-281.152740	786.305969	-496.783676	-252.923462	847.067566	-90.195724	-238.588623	843.110779	-342.317841	-471.290771	866.800842	-231.631531	-481.852936	1170.961548	-219.597687	-228.569962	1086.267090	-217.673477	-355.857910	508.719299	-43.918682	-366.173279	452.571259	-92.503571	-399.168274	272.478088	-47.671249	-410.981934	61.432579	-127.680809	-453.354126	58.795311	-179.156555	-293.888763	47.109432	-130.799179	-339.533020	473.726990	-425.586884	-347.416687	448.267456	-357.274841	-367.028015	258.538849	-396.864532	-388.900635	60.608833	-323.101715	-441.191589	53.355572	-275.974945	-269.489990	44.102314	-305.223999
6	0.05000000	-330.712738	1296.269287	-45.570576	-326.748413	1298.995850	-386.254730	-413.827881	1362.640869	-220.045441	-292.966217	1260.243896	-218.597885	-358.597839	1001.202698	29.271578	-347.738525	999.720398	-472.974274	-287.938354	785.109436	60.175771	-281.181015	786.317291	-496.812271	-253.016434	847.077637	-90.120293	-238.563309	843.112915	-342.359009	-471.442596	866.790344	-231.583771	-481.870453	1170.969116	-219.577728	-228.626022	1086.288208	-217.657791	-355.930176	508.687958	-43.886032	-366.220367	452.391907	-92.570267	-399.210358	272.506622	-47.632328	-411.059235	61.462902	-127.632568	-453.354889	58.795162	-179.156250	-293.885010	47.108097	-130.811783	-339.605255	473.690552	-425.556335	-347.484253	448.244263	-357.244873	-367.073944	258.564087	-396.962860	-388.970093	60.640472	-323.033966	-441.137146	53.384090	-275.978607	-269.502991	44.142933	-305.261169
7	0.06000000	-330.775055	1296.274658	-45.620758	-326.770142	1299.069458	-386.215149	-413.956573	1362.654541	-220.070297	-292.982239	1260.314331	-218.507446	-358.566833	1001.249023	29.454868	-347.813110	999.802002	-473.057404	-287.960327	785.153687	60.255606	-281.166763	786.327850	-496.857132	-253.136032	847.064819	-90.146477	-238.649643	843.101135	-342.257599	-471.497131	866.754456	-231.570114	-481.942627	1170.980347	-219.529831	-228.645599	1086.346558	-217.519791	-355.917084	508.698486	-43.887764	-366.260773	452.507477	-92.479111	-399.207245	272.492981	-47.606625	-411.110687	61.389896	-127.715179	-453.355347	58.795418	-179.156036	-293.886017	47.108997	-130.800751	-339.593567	473.724915	-425.588135	-347.503357	448.240814	-357.245758	-367.087311	258.549835	-396.923431	-388.976349	60.634911	-323.040527	-441.177185	53.419209	-276.033020	-269.506317	44.105019	-305.203827
8	0.07000000	-330.858032	1296.285645	-45.589970	-326.784546	1299.118652	-386.175385	-414.049347	1362.590088	-220.005066	-293.129944	1260.314453	-218.524994	-358.661896	1001.172180	29.453821	-347.747803	999.852478	-473.222595	-287.936844	785.173798	60.334961	-280.633759	786.720245	-497.249466	-253.153137	847.081055	-90.154343	-238.795349	843.106750	-342.270050	-471.470093	866.761658	-231.604675	-482.008606	1170.980591	-219.599060	-228.690659	1086.450928	-217.459534	-356.052704	508.789551	-43.801525	-366.359589	452.365906	-92.573608	-399.143860	272.367371	-47.825127	-411.129211	61.408573	-127.715233	-453.355377	58.795456	-179.156021	-293.885468	47.108135	-130.811539	-339.599731	473.762451	-425.555237	-347.489014	448.237244	-357.200867	-367.040405	258.202454	-396.455811	-389.003082	60.627430	-323.074432	-441.254333	53.267761	-275.815674	-269.504761	44.069687	-305.189148
9	0.08000000	-330.996185	1296.343750	-45.535103	-326.862000	1299.119385	-386.125092	-414.186523	1362.590576	-220.024124	-293.156891	1260.347656	-218.469513	-358.964752	1001.140808	29.339207	-347.718231	999.902527	-473.270813	-288.000092	785.253204	60.485430	-281.001816	786.473907	-496.966370	-253.128357	847.150757	-90.133743	-238.790573	843.131836	-342.319000	-471.599579	866.785767	-231.637024	-482.081451	1170.989624	-219.559494	-228.791580	1086.435425	-217.545883	-356.076385	508.795074	-43.778694	-366.358124	452.514191	-92.529617	-399.200256	272.490173	-47.649837	-411.090698	61.437523	-127.737236	-453.355347	58.795437	-179.156036	-293.930115	47.104446	-130.844727	-339.656311	473.758942	-425.520355	-347.498688	448.240784	-357.242523	-367.083527	258.517822	-396.869720	-388.939331	60.604675	-323.130157	-441.161652	53.381493	-275.968750	-269.571960	44.043636	-305.162811
10	0.09000000	-330.990326	1296.337280	-45.542801	-326.920044	1299.198975	-386.112061	-414.267303	1362.600830	-219.980652	-293.193146	1260.407593	-218.364639	-359.463745	1001.179993	29.087189	-347.735199	999.893127	-473.188019	-287.947632	785.306335	60.489111	-281.126541	786.355469	-497.081955	-253.328918	847.117676	-90.008873	-238.849274	843.192444	-342.171631	-471.572449	866.755554	-231.534775	-482.161102	1170.936768	-219.599167	-228.779724	1086.541504	-217.500854	-356.050507	508.663330	-43.823238	-366.362030	452.532623	-92.518654	-399.309753	272.514038	-47.653881	-411.057007	61.424358	-127.650597	-453.389038	58.789757	-179.144424	-293.940033	47.104996	-130.853455	-339.613617	473.745422	-425.590393	-347.559204	448.244537	-357.277649	-367.026123	258.220215	-396.525238	-389.030121	60.624447	-323.104553	-441.155548	53.408588	-275.964996	-269.511566	44.081287	-305.219208
